<svg width="5461" height="5461" viewBox="0 0 5461 5461" fill="none" xmlns="http://www.w3.org/2000/svg">
<g clip-path="url(#clip0)">
<path d="M3868.2 5461C3095.93 5461 2275.41 5221.62 2275.41 4778.37C2275.41 4715.57 2326.38 4664.6 2389.18 4664.6C2451.99 4664.6 2502.95 4715.57 2502.95 4778.37C2502.95 4968.37 3022.2 5233.46 3868.2 5233.46C4714.21 5233.46 5233.46 4968.37 5233.46 4778.37C5233.46 4715.57 5284.42 4664.6 5347.23 4664.6C5410.03 4664.6 5461 4715.57 5461 4778.37C5461 5221.62 4640.48 5461 3868.2 5461Z" fill="#054DB1"/>
<path d="M3868.2 4778.37C3095.93 4778.37 2275.41 4539 2275.41 4095.75C2275.41 4032.95 2326.38 3981.98 2389.18 3981.98C2451.99 3981.98 2502.95 4032.95 2502.95 4095.75C2502.95 4285.74 3022.2 4550.83 3868.2 4550.83C4714.21 4550.83 5233.46 4285.74 5233.46 4095.75C5233.46 4032.95 5284.42 3981.98 5347.23 3981.98C5410.03 3981.98 5461 4032.95 5461 4095.75C5461 4539 4640.48 4778.37 3868.2 4778.37Z" fill="#054DB1"/>
<path d="M3868.2 4095.75C3095.93 4095.75 2275.41 3856.38 2275.41 3413.12C2275.41 2969.87 3095.93 2730.5 3868.2 2730.5C4640.48 2730.5 5461 2969.87 5461 3413.12C5461 3856.38 4640.48 4095.75 3868.2 4095.75ZM3868.2 2958.04C3022.2 2958.04 2502.95 3223.13 2502.95 3413.12C2502.95 3603.12 3022.2 3868.21 3868.2 3868.21C4714.21 3868.21 5233.46 3603.12 5233.46 3413.12C5233.46 3223.13 4714.21 2958.04 3868.2 2958.04Z" fill="#054DB1"/>
<path d="M5347.23 4892.14C5284.43 4892.14 5233.46 4841.17 5233.46 4778.37V3413.12C5233.46 3350.32 5284.43 3299.35 5347.23 3299.35C5410.03 3299.35 5461 3350.32 5461 3413.12V4778.37C5461 4841.17 5410.03 4892.14 5347.23 4892.14Z" fill="#054DB1"/>
<path d="M2389.18 4892.14C2326.38 4892.14 2275.41 4841.17 2275.41 4778.37V3413.12C2275.41 3350.32 2326.38 3299.35 2389.18 3299.35C2451.99 3299.35 2502.95 3350.32 2502.95 3413.12V4778.37C2502.95 4841.17 2451.99 4892.14 2389.18 4892.14Z" fill="#054DB1"/>
<path d="M1592.79 2730.5C820.515 2730.5 0 2491.12 0 2047.87C0 1985.07 50.9693 1934.1 113.771 1934.1C176.572 1934.1 227.542 1985.07 227.542 2047.87C227.542 2237.87 746.792 2502.96 1592.79 2502.96C2438.79 2502.96 2958.04 2237.87 2958.04 2047.87C2958.04 1985.07 3009.01 1934.1 3071.81 1934.1C3134.61 1934.1 3185.58 1985.07 3185.58 2047.87C3185.58 2491.12 2365.07 2730.5 1592.79 2730.5Z" fill="#054DB1"/>
<path d="M1592.79 2047.87C820.515 2047.87 0 1808.5 0 1365.25C0 1302.45 50.9693 1251.48 113.771 1251.48C176.572 1251.48 227.542 1302.45 227.542 1365.25C227.542 1555.24 746.792 1820.33 1592.79 1820.33C2438.79 1820.33 2958.04 1555.24 2958.04 1365.25C2958.04 1302.45 3009.01 1251.48 3071.81 1251.48C3134.61 1251.48 3185.58 1302.45 3185.58 1365.25C3185.58 1808.5 2365.07 2047.87 1592.79 2047.87Z" fill="#054DB1"/>
<path d="M1592.79 4095.75C820.515 4095.75 0 3856.37 0 3413.12C0 3350.32 50.9693 3299.35 113.771 3299.35C176.572 3299.35 227.542 3350.32 227.542 3413.12C227.542 3603.12 746.792 3868.21 1592.79 3868.21C1716.57 3868.21 1824.43 3863.2 1922.04 3852.96C1983.71 3846.13 2040.59 3891.64 2047.19 3953.99C2053.79 4016.33 2008.51 4072.54 1946.16 4079.14C1840.13 4090.51 1724.54 4095.75 1592.79 4095.75Z" fill="#054DB1"/>
<path d="M1592.79 4778.37C820.515 4778.37 0 4539 0 4095.75C0 4032.95 50.9693 3981.98 113.771 3981.98C176.572 3981.98 227.542 4032.95 227.542 4095.75C227.542 4285.74 746.792 4550.83 1592.79 4550.83C1716.57 4550.83 1824.43 4545.83 1922.04 4535.59C1983.71 4527.62 2040.59 4574.27 2047.19 4636.61C2053.79 4698.96 2008.51 4755.16 1946.16 4761.76C1840.13 4773.14 1724.54 4778.37 1592.79 4778.37Z" fill="#054DB1"/>
<path d="M1592.79 3413.12C820.515 3413.12 0 3173.75 0 2730.5C0 2667.69 50.9693 2616.73 113.771 2616.73C176.572 2616.73 227.542 2667.69 227.542 2730.5C227.542 2920.49 746.792 3185.58 1592.79 3185.58C1716.57 3185.58 1824.43 3180.57 1922.04 3170.33C1983.71 3163.05 2040.59 3208.79 2047.19 3271.36C2053.79 3333.71 2008.51 3389.91 1946.16 3396.51C1840.13 3407.89 1724.54 3413.12 1592.79 3413.12Z" fill="#054DB1"/>
<path d="M1592.79 1365.25C820.515 1365.25 0 1125.88 0 682.625C0 239.374 820.515 0 1592.79 0C2365.07 0 3185.58 239.374 3185.58 682.625C3185.58 1125.88 2365.07 1365.25 1592.79 1365.25ZM1592.79 227.542C746.792 227.542 227.542 492.628 227.542 682.625C227.542 872.622 746.792 1137.71 1592.79 1137.71C2438.79 1137.71 2958.04 872.622 2958.04 682.625C2958.04 492.628 2438.79 227.542 1592.79 227.542Z" fill="#054DB1"/>
<path d="M113.771 4209.52C50.9693 4209.52 0 4158.55 0 4095.75V682.621C0 619.82 50.9693 568.851 113.771 568.851C176.572 568.851 227.542 619.82 227.542 682.621V4095.75C227.542 4158.55 176.572 4209.52 113.771 4209.52Z" fill="#054DB1"/>
<path d="M3071.81 2161.64C3009.01 2161.64 2958.04 2110.67 2958.04 2047.87V682.621C2958.04 619.82 3009.01 568.851 3071.81 568.851C3134.61 568.851 3185.58 619.82 3185.58 682.621V2047.87C3185.58 2110.67 3134.61 2161.64 3071.81 2161.64Z" fill="#054DB1"/>
</g>
<defs>
<clipPath id="clip0">
<rect width="5461" height="5461" fill="white"/>
</clipPath>
</defs>
</svg>
