<svg width="50" height="50" viewBox="0 0 26 26" fill="none" xmlns="http://www.w3.org/2000/svg">
<g clip-path="url(#clip0)">
<path d="M14.0833 20.5834H20.5833V10.8095L13 4.91188L5.41667 10.8095V20.5834H11.9167V14.0834H14.0833V20.5834ZM22.75 21.6667C22.75 21.954 22.6359 22.2296 22.4327 22.4327C22.2295 22.6359 21.954 22.75 21.6667 22.75H4.33333C4.04602 22.75 3.77047 22.6359 3.5673 22.4327C3.36414 22.2296 3.25 21.954 3.25 21.6667V10.2809C3.24989 10.1158 3.2875 9.95287 3.35998 9.80454C3.43245 9.65621 3.53786 9.52641 3.66817 9.42505L12.3348 2.68455C12.525 2.53662 12.7591 2.4563 13 2.4563C13.2409 2.4563 13.475 2.53662 13.6652 2.68455L22.3318 9.42505C22.4621 9.52641 22.5676 9.65621 22.64 9.80454C22.7125 9.95287 22.7501 10.1158 22.75 10.2809V21.6667Z" fill="#ECECFE"/>
</g>
<defs>
<clipPath id="clip0">
<rect width="26" height="26" fill="white"/>
</clipPath>
</defs>
</svg>
